<mxfile host="app.diagrams.net" agent="Mozilla/5.0 (Windows NT 10.0; Win64; x64; rv:134.0) Gecko/20100101 Firefox/134.0" version="26.0.4">
  <diagram name="Page-1" id="T58Goj_OL8v1O63-xq48">
    <mxGraphModel dx="1274" dy="669" grid="1" gridSize="10" guides="1" tooltips="1" connect="1" arrows="1" fold="1" page="1" pageScale="1" pageWidth="827" pageHeight="1169" math="0" shadow="0">
      <root>
        <mxCell id="0" />
        <mxCell id="1" parent="0" />
        <mxCell id="gDHHk_n-9iU1s2bguLzU-1" value="Incoming client" style="rounded=1;whiteSpace=wrap;html=1;" vertex="1" parent="1">
          <mxGeometry x="40" y="210" width="90" height="30" as="geometry" />
        </mxCell>
        <mxCell id="gDHHk_n-9iU1s2bguLzU-2" value="Welcome Client" style="rounded=1;whiteSpace=wrap;html=1;" vertex="1" parent="1">
          <mxGeometry x="160" y="210" width="90" height="30" as="geometry" />
        </mxCell>
        <mxCell id="gDHHk_n-9iU1s2bguLzU-4" value="" style="endArrow=classic;html=1;rounded=0;entryX=0;entryY=0.5;entryDx=0;entryDy=0;exitX=1;exitY=0.5;exitDx=0;exitDy=0;" edge="1" parent="1" source="gDHHk_n-9iU1s2bguLzU-1" target="gDHHk_n-9iU1s2bguLzU-2">
          <mxGeometry width="50" height="50" relative="1" as="geometry">
            <mxPoint x="70" y="270" as="sourcePoint" />
            <mxPoint x="120" y="220" as="targetPoint" />
          </mxGeometry>
        </mxCell>
        <mxCell id="gDHHk_n-9iU1s2bguLzU-6" value="Set table" style="rounded=1;whiteSpace=wrap;html=1;" vertex="1" parent="1">
          <mxGeometry x="280" y="210" width="90" height="30" as="geometry" />
        </mxCell>
        <mxCell id="gDHHk_n-9iU1s2bguLzU-7" value="" style="endArrow=classic;html=1;rounded=0;entryX=0;entryY=0.5;entryDx=0;entryDy=0;exitX=1;exitY=0.5;exitDx=0;exitDy=0;" edge="1" parent="1" target="gDHHk_n-9iU1s2bguLzU-6">
          <mxGeometry width="50" height="50" relative="1" as="geometry">
            <mxPoint x="250" y="225" as="sourcePoint" />
            <mxPoint x="240" y="220" as="targetPoint" />
          </mxGeometry>
        </mxCell>
        <mxCell id="gDHHk_n-9iU1s2bguLzU-9" value="" style="endArrow=classic;html=1;rounded=0;entryX=0;entryY=0.5;entryDx=0;entryDy=0;exitX=1;exitY=0.5;exitDx=0;exitDy=0;" edge="1" parent="1">
          <mxGeometry width="50" height="50" relative="1" as="geometry">
            <mxPoint x="370" y="224.83" as="sourcePoint" />
            <mxPoint x="400" y="224.83" as="targetPoint" />
          </mxGeometry>
        </mxCell>
        <mxCell id="gDHHk_n-9iU1s2bguLzU-10" value="Give Menu" style="rounded=1;whiteSpace=wrap;html=1;" vertex="1" parent="1">
          <mxGeometry x="400" y="210" width="90" height="30" as="geometry" />
        </mxCell>
        <mxCell id="gDHHk_n-9iU1s2bguLzU-14" value="" style="endArrow=classic;html=1;rounded=0;exitX=0.546;exitY=1;exitDx=0;exitDy=0;exitPerimeter=0;" edge="1" parent="1" source="gDHHk_n-9iU1s2bguLzU-10">
          <mxGeometry width="50" height="50" relative="1" as="geometry">
            <mxPoint x="110" y="240" as="sourcePoint" />
            <mxPoint x="449.57142857142856" y="280" as="targetPoint" />
          </mxGeometry>
        </mxCell>
        <mxCell id="gDHHk_n-9iU1s2bguLzU-15" value="Client Choice" style="rhombus;whiteSpace=wrap;html=1;" vertex="1" parent="1">
          <mxGeometry x="410" y="280" width="80" height="50" as="geometry" />
        </mxCell>
        <mxCell id="gDHHk_n-9iU1s2bguLzU-17" value="" style="rhombus;whiteSpace=wrap;html=1;" vertex="1" parent="1">
          <mxGeometry x="422.5" y="360" width="57.5" height="50" as="geometry" />
        </mxCell>
        <mxCell id="gDHHk_n-9iU1s2bguLzU-19" value="" style="endArrow=classic;html=1;rounded=0;exitX=0.546;exitY=1;exitDx=0;exitDy=0;exitPerimeter=0;" edge="1" parent="1">
          <mxGeometry width="50" height="50" relative="1" as="geometry">
            <mxPoint x="449.71000000000004" y="330" as="sourcePoint" />
            <mxPoint x="450" y="360" as="targetPoint" />
          </mxGeometry>
        </mxCell>
        <mxCell id="gDHHk_n-9iU1s2bguLzU-20" value="" style="endArrow=classic;html=1;rounded=0;exitX=0;exitY=0.5;exitDx=0;exitDy=0;" edge="1" parent="1" source="gDHHk_n-9iU1s2bguLzU-17">
          <mxGeometry width="50" height="50" relative="1" as="geometry">
            <mxPoint x="290" y="290" as="sourcePoint" />
            <mxPoint x="390" y="385" as="targetPoint" />
          </mxGeometry>
        </mxCell>
        <mxCell id="gDHHk_n-9iU1s2bguLzU-23" value="" style="endArrow=classic;html=1;rounded=0;exitX=1;exitY=0.5;exitDx=0;exitDy=0;entryX=1;entryY=0.5;entryDx=0;entryDy=0;" edge="1" parent="1" source="gDHHk_n-9iU1s2bguLzU-17" target="gDHHk_n-9iU1s2bguLzU-15">
          <mxGeometry width="50" height="50" relative="1" as="geometry">
            <mxPoint x="530.5" y="380" as="sourcePoint" />
            <mxPoint x="520" y="310" as="targetPoint" />
            <Array as="points">
              <mxPoint x="520" y="385" />
              <mxPoint x="520" y="305" />
            </Array>
          </mxGeometry>
        </mxCell>
        <mxCell id="gDHHk_n-9iU1s2bguLzU-24" value="Else" style="text;strokeColor=none;align=center;fillColor=none;html=1;verticalAlign=middle;whiteSpace=wrap;rounded=0;" vertex="1" parent="1">
          <mxGeometry x="460" y="360" width="60" height="30" as="geometry" />
        </mxCell>
        <mxCell id="gDHHk_n-9iU1s2bguLzU-27" value="Wait" style="rounded=1;whiteSpace=wrap;html=1;" vertex="1" parent="1">
          <mxGeometry x="510" y="370" width="47.5" height="30" as="geometry" />
        </mxCell>
        <mxCell id="gDHHk_n-9iU1s2bguLzU-28" value="Taking order" style="rounded=1;whiteSpace=wrap;html=1;" vertex="1" parent="1">
          <mxGeometry x="300" y="370" width="90" height="30" as="geometry" />
        </mxCell>
        <mxCell id="gDHHk_n-9iU1s2bguLzU-30" value="Order to kitchen" style="rounded=1;whiteSpace=wrap;html=1;" vertex="1" parent="1">
          <mxGeometry x="250" y="460" width="90" height="30" as="geometry" />
        </mxCell>
        <mxCell id="gDHHk_n-9iU1s2bguLzU-33" value="Ordered" style="text;strokeColor=none;align=center;fillColor=none;html=1;verticalAlign=middle;whiteSpace=wrap;rounded=0;" vertex="1" parent="1">
          <mxGeometry x="384" y="350" width="60" height="30" as="geometry" />
        </mxCell>
        <mxCell id="gDHHk_n-9iU1s2bguLzU-81" value="" style="rounded=1;whiteSpace=wrap;html=1;fillColor=#050505;" vertex="1" parent="1">
          <mxGeometry x="292.5" y="430" width="105" height="5" as="geometry" />
        </mxCell>
        <mxCell id="gDHHk_n-9iU1s2bguLzU-82" value="" style="endArrow=classic;html=1;rounded=0;exitX=0.546;exitY=1;exitDx=0;exitDy=0;exitPerimeter=0;" edge="1" parent="1">
          <mxGeometry width="50" height="50" relative="1" as="geometry">
            <mxPoint x="344.83000000000004" y="400" as="sourcePoint" />
            <mxPoint x="345.12" y="430" as="targetPoint" />
          </mxGeometry>
        </mxCell>
        <mxCell id="gDHHk_n-9iU1s2bguLzU-83" value="" style="endArrow=classic;html=1;rounded=0;exitX=0.546;exitY=1;exitDx=0;exitDy=0;exitPerimeter=0;" edge="1" parent="1">
          <mxGeometry width="50" height="50" relative="1" as="geometry">
            <mxPoint x="310.00000000000006" y="435" as="sourcePoint" />
            <mxPoint x="310" y="460" as="targetPoint" />
          </mxGeometry>
        </mxCell>
        <mxCell id="gDHHk_n-9iU1s2bguLzU-84" value="" style="endArrow=classic;html=1;rounded=0;exitX=0.891;exitY=0.756;exitDx=0;exitDy=0;exitPerimeter=0;entryX=0.5;entryY=0;entryDx=0;entryDy=0;" edge="1" parent="1" source="gDHHk_n-9iU1s2bguLzU-81" target="gDHHk_n-9iU1s2bguLzU-87">
          <mxGeometry width="50" height="50" relative="1" as="geometry">
            <mxPoint x="384.00000000000006" y="435" as="sourcePoint" />
            <mxPoint x="384" y="460" as="targetPoint" />
          </mxGeometry>
        </mxCell>
        <mxCell id="gDHHk_n-9iU1s2bguLzU-85" value="" style="endArrow=classic;html=1;rounded=0;exitX=0.546;exitY=1;exitDx=0;exitDy=0;exitPerimeter=0;" edge="1" parent="1">
          <mxGeometry width="50" height="50" relative="1" as="geometry">
            <mxPoint x="310.00000000000006" y="490" as="sourcePoint" />
            <mxPoint x="310" y="515" as="targetPoint" />
          </mxGeometry>
        </mxCell>
        <mxCell id="gDHHk_n-9iU1s2bguLzU-86" value="Cook" style="rounded=1;whiteSpace=wrap;html=1;" vertex="1" parent="1">
          <mxGeometry x="250" y="516" width="90" height="30" as="geometry" />
        </mxCell>
        <mxCell id="gDHHk_n-9iU1s2bguLzU-87" value="Drinks" style="rhombus;whiteSpace=wrap;html=1;" vertex="1" parent="1">
          <mxGeometry x="359" y="460" width="55" height="50" as="geometry" />
        </mxCell>
        <mxCell id="gDHHk_n-9iU1s2bguLzU-89" value="" style="endArrow=classic;html=1;rounded=0;exitX=1;exitY=0.5;exitDx=0;exitDy=0;" edge="1" parent="1" source="gDHHk_n-9iU1s2bguLzU-87">
          <mxGeometry width="50" height="50" relative="1" as="geometry">
            <mxPoint x="460" y="520" as="sourcePoint" />
            <mxPoint x="470" y="485" as="targetPoint" />
          </mxGeometry>
        </mxCell>
        <mxCell id="gDHHk_n-9iU1s2bguLzU-90" value="Get drinks" style="rounded=1;whiteSpace=wrap;html=1;" vertex="1" parent="1">
          <mxGeometry x="466.25" y="470" width="47.5" height="30" as="geometry" />
        </mxCell>
        <mxCell id="gDHHk_n-9iU1s2bguLzU-91" value="Get break &amp;amp; cultery" style="rounded=1;whiteSpace=wrap;html=1;" vertex="1" parent="1">
          <mxGeometry x="354" y="530" width="65" height="40" as="geometry" />
        </mxCell>
        <mxCell id="gDHHk_n-9iU1s2bguLzU-92" value="" style="endArrow=classic;html=1;rounded=0;exitX=0.5;exitY=1;exitDx=0;exitDy=0;entryX=0.5;entryY=0;entryDx=0;entryDy=0;" edge="1" parent="1" source="gDHHk_n-9iU1s2bguLzU-87" target="gDHHk_n-9iU1s2bguLzU-91">
          <mxGeometry width="50" height="50" relative="1" as="geometry">
            <mxPoint x="384" y="510" as="sourcePoint" />
            <mxPoint x="385" y="536" as="targetPoint" />
          </mxGeometry>
        </mxCell>
        <mxCell id="gDHHk_n-9iU1s2bguLzU-93" value="" style="endArrow=classic;html=1;rounded=0;exitX=0.891;exitY=0.756;exitDx=0;exitDy=0;exitPerimeter=0;entryX=1;entryY=0.5;entryDx=0;entryDy=0;" edge="1" parent="1" target="gDHHk_n-9iU1s2bguLzU-91">
          <mxGeometry width="50" height="50" relative="1" as="geometry">
            <mxPoint x="490" y="500" as="sourcePoint" />
            <mxPoint x="491" y="526" as="targetPoint" />
            <Array as="points">
              <mxPoint x="490" y="550" />
            </Array>
          </mxGeometry>
        </mxCell>
        <mxCell id="gDHHk_n-9iU1s2bguLzU-94" value="&lt;div&gt;True&lt;/div&gt;&lt;div&gt;&lt;br&gt;&lt;/div&gt;" style="text;html=1;align=center;verticalAlign=middle;resizable=0;points=[];autosize=1;strokeColor=none;fillColor=none;" vertex="1" parent="1">
          <mxGeometry x="395" y="453" width="50" height="40" as="geometry" />
        </mxCell>
        <mxCell id="gDHHk_n-9iU1s2bguLzU-95" value="else" style="text;html=1;align=center;verticalAlign=middle;resizable=0;points=[];autosize=1;strokeColor=none;fillColor=none;" vertex="1" parent="1">
          <mxGeometry x="384" y="505" width="50" height="30" as="geometry" />
        </mxCell>
        <mxCell id="gDHHk_n-9iU1s2bguLzU-97" value="Meal done" style="rounded=1;whiteSpace=wrap;html=1;" vertex="1" parent="1">
          <mxGeometry x="250" y="580" width="90" height="30" as="geometry" />
        </mxCell>
        <mxCell id="gDHHk_n-9iU1s2bguLzU-98" value="" style="endArrow=classic;html=1;rounded=0;exitX=0.546;exitY=1;exitDx=0;exitDy=0;exitPerimeter=0;entryX=0.551;entryY=0.052;entryDx=0;entryDy=0;entryPerimeter=0;" edge="1" parent="1" target="gDHHk_n-9iU1s2bguLzU-97">
          <mxGeometry width="50" height="50" relative="1" as="geometry">
            <mxPoint x="300.00000000000006" y="546" as="sourcePoint" />
            <mxPoint x="300" y="571" as="targetPoint" />
          </mxGeometry>
        </mxCell>
        <mxCell id="gDHHk_n-9iU1s2bguLzU-99" value="Meal to client" style="rounded=1;whiteSpace=wrap;html=1;" vertex="1" parent="1">
          <mxGeometry x="359" y="580" width="90" height="30" as="geometry" />
        </mxCell>
        <mxCell id="gDHHk_n-9iU1s2bguLzU-101" value="" style="endArrow=classic;html=1;rounded=0;exitX=1;exitY=0.5;exitDx=0;exitDy=0;entryX=0;entryY=0.5;entryDx=0;entryDy=0;" edge="1" parent="1" target="gDHHk_n-9iU1s2bguLzU-99">
          <mxGeometry width="50" height="50" relative="1" as="geometry">
            <mxPoint x="341.5" y="594.81" as="sourcePoint" />
            <mxPoint x="397.5" y="594.81" as="targetPoint" />
          </mxGeometry>
        </mxCell>
        <mxCell id="gDHHk_n-9iU1s2bguLzU-103" value="Client check" style="rhombus;whiteSpace=wrap;html=1;" vertex="1" parent="1">
          <mxGeometry x="370" y="640" width="55" height="50" as="geometry" />
        </mxCell>
        <mxCell id="gDHHk_n-9iU1s2bguLzU-104" value="" style="endArrow=classic;html=1;rounded=0;entryX=0.5;entryY=0;entryDx=0;entryDy=0;exitX=0.429;exitY=1;exitDx=0;exitDy=0;exitPerimeter=0;" edge="1" parent="1" source="gDHHk_n-9iU1s2bguLzU-99" target="gDHHk_n-9iU1s2bguLzU-103">
          <mxGeometry width="50" height="50" relative="1" as="geometry">
            <mxPoint x="260" y="610" as="sourcePoint" />
            <mxPoint x="310" y="560" as="targetPoint" />
          </mxGeometry>
        </mxCell>
        <mxCell id="gDHHk_n-9iU1s2bguLzU-105" value="" style="endArrow=classic;html=1;rounded=0;exitX=0;exitY=0.5;exitDx=0;exitDy=0;entryX=1;entryY=0.5;entryDx=0;entryDy=0;" edge="1" parent="1" source="gDHHk_n-9iU1s2bguLzU-103" target="gDHHk_n-9iU1s2bguLzU-106">
          <mxGeometry width="50" height="50" relative="1" as="geometry">
            <mxPoint x="321" y="640" as="sourcePoint" />
            <mxPoint x="250" y="690" as="targetPoint" />
            <Array as="points">
              <mxPoint x="290" y="665" />
            </Array>
          </mxGeometry>
        </mxCell>
        <mxCell id="gDHHk_n-9iU1s2bguLzU-106" value="Order back to kitchen" style="rounded=1;whiteSpace=wrap;html=1;" vertex="1" parent="1">
          <mxGeometry x="150" y="650" width="90" height="30" as="geometry" />
        </mxCell>
        <mxCell id="gDHHk_n-9iU1s2bguLzU-107" value="Refuse" style="text;html=1;align=center;verticalAlign=middle;resizable=0;points=[];autosize=1;strokeColor=none;fillColor=none;" vertex="1" parent="1">
          <mxGeometry x="320" y="638" width="60" height="30" as="geometry" />
        </mxCell>
        <mxCell id="gDHHk_n-9iU1s2bguLzU-110" value="" style="endArrow=classic;html=1;rounded=0;exitX=1;exitY=0.5;exitDx=0;exitDy=0;entryX=0;entryY=0.5;entryDx=0;entryDy=0;" edge="1" parent="1">
          <mxGeometry width="50" height="50" relative="1" as="geometry">
            <mxPoint x="425" y="664.47" as="sourcePoint" />
            <mxPoint x="460" y="665" as="targetPoint" />
          </mxGeometry>
        </mxCell>
        <mxCell id="gDHHk_n-9iU1s2bguLzU-113" value="else" style="text;html=1;align=center;verticalAlign=middle;resizable=0;points=[];autosize=1;strokeColor=none;fillColor=none;" vertex="1" parent="1">
          <mxGeometry x="410" y="638" width="50" height="30" as="geometry" />
        </mxCell>
        <mxCell id="gDHHk_n-9iU1s2bguLzU-115" value="Receipt to client" style="rounded=1;whiteSpace=wrap;html=1;" vertex="1" parent="1">
          <mxGeometry x="550" y="650" width="90" height="30" as="geometry" />
        </mxCell>
        <mxCell id="gDHHk_n-9iU1s2bguLzU-116" value="" style="endArrow=classic;html=1;rounded=0;exitX=0.939;exitY=0.512;exitDx=0;exitDy=0;exitPerimeter=0;" edge="1" parent="1" source="gDHHk_n-9iU1s2bguLzU-121">
          <mxGeometry width="50" height="50" relative="1" as="geometry">
            <mxPoint x="550" y="664.7" as="sourcePoint" />
            <mxPoint x="550" y="665" as="targetPoint" />
          </mxGeometry>
        </mxCell>
        <mxCell id="gDHHk_n-9iU1s2bguLzU-117" value="Clean table" style="rounded=1;whiteSpace=wrap;html=1;" vertex="1" parent="1">
          <mxGeometry x="680" y="650" width="90" height="30" as="geometry" />
        </mxCell>
        <mxCell id="gDHHk_n-9iU1s2bguLzU-118" value="" style="endArrow=classic;html=1;rounded=0;entryX=0;entryY=0.5;entryDx=0;entryDy=0;exitX=1;exitY=0.5;exitDx=0;exitDy=0;" edge="1" parent="1" source="gDHHk_n-9iU1s2bguLzU-115" target="gDHHk_n-9iU1s2bguLzU-117">
          <mxGeometry width="50" height="50" relative="1" as="geometry">
            <mxPoint x="635.5" y="680" as="sourcePoint" />
            <mxPoint x="634.5" y="710" as="targetPoint" />
          </mxGeometry>
        </mxCell>
        <mxCell id="gDHHk_n-9iU1s2bguLzU-119" value="" style="ellipse;html=1;shape=endState;fillColor=#000000;strokeColor=#ff0000;" vertex="1" parent="1">
          <mxGeometry x="710" y="720" width="30" height="30" as="geometry" />
        </mxCell>
        <mxCell id="gDHHk_n-9iU1s2bguLzU-120" value="" style="endArrow=classic;html=1;rounded=0;exitX=0.5;exitY=1;exitDx=0;exitDy=0;" edge="1" parent="1" source="gDHHk_n-9iU1s2bguLzU-117">
          <mxGeometry width="50" height="50" relative="1" as="geometry">
            <mxPoint x="645.5" y="690" as="sourcePoint" />
            <mxPoint x="725" y="720" as="targetPoint" />
          </mxGeometry>
        </mxCell>
        <mxCell id="gDHHk_n-9iU1s2bguLzU-121" value="&lt;div&gt;Client&lt;/div&gt;&lt;div&gt;done&lt;br&gt;&lt;/div&gt;" style="rhombus;whiteSpace=wrap;html=1;" vertex="1" parent="1">
          <mxGeometry x="458.75" y="640" width="55" height="50" as="geometry" />
        </mxCell>
        <mxCell id="gDHHk_n-9iU1s2bguLzU-123" value="" style="endArrow=classic;html=1;rounded=0;exitX=0.454;exitY=0.019;exitDx=0;exitDy=0;exitPerimeter=0;entryX=0;entryY=0.5;entryDx=0;entryDy=0;" edge="1" parent="1" source="gDHHk_n-9iU1s2bguLzU-106" target="gDHHk_n-9iU1s2bguLzU-86">
          <mxGeometry width="50" height="50" relative="1" as="geometry">
            <mxPoint x="396" y="444" as="sourcePoint" />
            <mxPoint x="397" y="470" as="targetPoint" />
            <Array as="points">
              <mxPoint x="191" y="531" />
            </Array>
          </mxGeometry>
        </mxCell>
        <mxCell id="gDHHk_n-9iU1s2bguLzU-124" value="Wait" style="rounded=1;whiteSpace=wrap;html=1;" vertex="1" parent="1">
          <mxGeometry x="458.75" y="710" width="47.5" height="30" as="geometry" />
        </mxCell>
        <mxCell id="gDHHk_n-9iU1s2bguLzU-125" value="" style="endArrow=classic;html=1;rounded=0;entryX=0.5;entryY=0;entryDx=0;entryDy=0;exitX=0.5;exitY=1;exitDx=0;exitDy=0;" edge="1" parent="1" source="gDHHk_n-9iU1s2bguLzU-121">
          <mxGeometry width="50" height="50" relative="1" as="geometry">
            <mxPoint x="486.05" y="680" as="sourcePoint" />
            <mxPoint x="486.05" y="710" as="targetPoint" />
          </mxGeometry>
        </mxCell>
        <mxCell id="gDHHk_n-9iU1s2bguLzU-127" value="" style="endArrow=classic;html=1;rounded=0;exitX=0.939;exitY=0.512;exitDx=0;exitDy=0;exitPerimeter=0;entryX=0.453;entryY=1;entryDx=0;entryDy=0;entryPerimeter=0;" edge="1" parent="1" target="gDHHk_n-9iU1s2bguLzU-115">
          <mxGeometry width="50" height="50" relative="1" as="geometry">
            <mxPoint x="506.25" y="725.5" as="sourcePoint" />
            <mxPoint x="546.25" y="724.5" as="targetPoint" />
            <Array as="points">
              <mxPoint x="590" y="726" />
            </Array>
          </mxGeometry>
        </mxCell>
      </root>
    </mxGraphModel>
  </diagram>
</mxfile>
